<?xml version="1.0" encoding="UTF-8" standalone="no"?>
<!DOCTYPE svg PUBLIC "-//W3C//DTD SVG 1.1//EN"
 "http://www.w3.org/Graphics/SVG/1.1/DTD/svg11.dtd">
<!-- Generated by graphviz version 7.1.0 (20230121.1956)
 -->
<!-- Title: dependency&#45;cruiser output Pages: 1 -->
<svg width="500pt" height="226pt"
 viewBox="0.00 0.00 500.00 226.00" xmlns="http://www.w3.org/2000/svg" xmlns:xlink="http://www.w3.org/1999/xlink">
<g id="graph0" class="graph" transform="scale(1 1) rotate(0) translate(4 222)">
<title>dependency&#45;cruiser output</title>
<polygon fill="white" stroke="none" points="-4,4 -4,-222 496,-222 496,4 -4,4"/>
<g id="clust1" class="cluster">
<title>cluster_src</title>
<path fill="#ffffff" stroke="black" stroke-width="2" d="M20,-8C20,-8 472,-8 472,-8 478,-8 484,-14 484,-20 484,-20 484,-198 484,-198 484,-204 478,-210 472,-210 472,-210 20,-210 20,-210 14,-210 8,-204 8,-198 8,-198 8,-20 8,-20 8,-14 14,-8 20,-8"/>
<text text-anchor="middle" x="246" y="-198.8" font-family="Helvetica,sans-Serif" font-weight="bold" font-size="9.00">src</text>
</g>
<g id="clust2" class="cluster">
<title>cluster_src/components</title>
<path fill="#ffffff" stroke="black" stroke-width="2" d="M323,-16C323,-16 464,-16 464,-16 470,-16 476,-22 476,-28 476,-28 476,-146 476,-146 476,-152 470,-158 464,-158 464,-158 323,-158 323,-158 317,-158 311,-152 311,-146 311,-146 311,-28 311,-28 311,-22 317,-16 323,-16"/>
<text text-anchor="middle" x="393.5" y="-146.8" font-family="Helvetica,sans-Serif" font-weight="bold" font-size="9.00">components</text>
</g>
<g id="clust3" class="cluster">
<title>cluster_src/components/form</title>
<path fill="#ffffff" stroke="black" stroke-width="2" d="M333,-24C333,-24 456,-24 456,-24 462,-24 468,-30 468,-36 468,-36 468,-94 468,-94 468,-100 462,-106 456,-106 456,-106 333,-106 333,-106 327,-106 321,-100 321,-94 321,-94 321,-36 321,-36 321,-30 327,-24 333,-24"/>
<text text-anchor="middle" x="394.5" y="-94.8" font-family="Helvetica,sans-Serif" font-weight="bold" font-size="9.00">form</text>
</g>
<g id="clust4" class="cluster">
<title>cluster_src/routes</title>
<path fill="#ffffff" stroke="black" stroke-width="2" d="M177.5,-75C177.5,-75 291,-75 291,-75 297,-75 303,-81 303,-87 303,-87 303,-145 303,-145 303,-151 297,-157 291,-157 291,-157 177.5,-157 177.5,-157 171.5,-157 165.5,-151 165.5,-145 165.5,-145 165.5,-87 165.5,-87 165.5,-81 171.5,-75 177.5,-75"/>
<text text-anchor="middle" x="234.25" y="-145.8" font-family="Helvetica,sans-Serif" font-weight="bold" font-size="9.00">routes</text>
</g>
<g id="clust5" class="cluster">
<title>cluster_src/tests</title>
<path fill="#ffffff" stroke="black" stroke-width="2" d="M28,-78C28,-78 82,-78 82,-78 88,-78 94,-84 94,-90 94,-90 94,-118 94,-118 94,-124 88,-130 82,-130 82,-130 28,-130 28,-130 22,-130 16,-124 16,-118 16,-118 16,-90 16,-90 16,-84 22,-78 28,-78"/>
<text text-anchor="middle" x="55" y="-118.8" font-family="Helvetica,sans-Serif" font-weight="bold" font-size="9.00">tests</text>
</g>
<!-- src/App.jsx -->
<g id="node1" class="node">
<title>src/App.jsx</title>
<g id="a_node1"><a xlink:href="src/App.jsx" xlink:title="App.jsx">
<path fill="#ffff77" stroke="black" d="M151,-100C151,-100 109,-100 109,-100 106,-100 103,-97 103,-94 103,-94 103,-88 103,-88 103,-85 106,-82 109,-82 109,-82 151,-82 151,-82 154,-82 157,-85 157,-88 157,-88 157,-94 157,-94 157,-97 154,-100 151,-100"/>
<text text-anchor="start" x="114.5" y="-88.8" font-family="Helvetica,sans-Serif" font-size="9.00">App.jsx</text>
</a>
</g>
</g>
<!-- src/layout.jsx -->
<g id="node2" class="node">
<title>src/layout.jsx</title>
<g id="a_node2"><a xlink:href="src/layout.jsx" xlink:title="layout.jsx">
<path fill="#ffff77" stroke="black" d="M222,-67C222,-67 179,-67 179,-67 176,-67 173,-64 173,-61 173,-61 173,-55 173,-55 173,-52 176,-49 179,-49 179,-49 222,-49 222,-49 225,-49 228,-52 228,-55 228,-55 228,-61 228,-61 228,-64 225,-67 222,-67"/>
<text text-anchor="start" x="181" y="-55.8" font-family="Helvetica,sans-Serif" font-size="9.00">layout.jsx</text>
</a>
</g>
</g>
<!-- src/App.jsx&#45;&gt;src/layout.jsx -->
<g id="edge1" class="edge">
<title>src/App.jsx&#45;&gt;src/layout.jsx</title>
<path fill="none" stroke="#000000" stroke-width="2" stroke-opacity="0.200000" d="M147.3,-81.53C152.99,-78.36 159.46,-74.9 165.5,-72 166.1,-71.71 166.72,-71.42 167.33,-71.13"/>
<polygon fill="#000000" fill-opacity="0.200000" stroke="#000000" stroke-width="2" stroke-opacity="0.200000" points="168.19,-73.05 172.81,-68.69 166.47,-69.22 168.19,-73.05"/>
</g>
<!-- src/routes/index.js -->
<g id="node3" class="node">
<title>src/routes/index.js</title>
<g id="a_node3"><a xlink:href="src/routes/index.js" xlink:title="index.js">
<path fill="#ffffcc" stroke="black" d="M221.5,-101C221.5,-101 179.5,-101 179.5,-101 176.5,-101 173.5,-98 173.5,-95 173.5,-95 173.5,-89 173.5,-89 173.5,-86 176.5,-83 179.5,-83 179.5,-83 221.5,-83 221.5,-83 224.5,-83 227.5,-86 227.5,-89 227.5,-89 227.5,-95 227.5,-95 227.5,-98 224.5,-101 221.5,-101"/>
<text text-anchor="start" x="184.5" y="-89.8" font-family="Helvetica,sans-Serif" font-size="9.00">index.js</text>
</a>
</g>
</g>
<!-- src/App.jsx&#45;&gt;src/routes/index.js -->
<g id="edge2" class="edge">
<title>src/App.jsx&#45;&gt;src/routes/index.js</title>
<path fill="none" stroke="#000000" stroke-width="2" stroke-opacity="0.200000" d="M157.29,-91.38C159.68,-91.42 162.13,-91.45 164.58,-91.49"/>
<polygon fill="#000000" fill-opacity="0.200000" stroke="#000000" stroke-width="2" stroke-opacity="0.200000" points="164.34,-93.59 170.37,-91.57 164.4,-89.39 164.34,-93.59"/>
</g>
<!-- src/routes/game.jsx -->
<g id="node11" class="node">
<title>src/routes/game.jsx</title>
<g id="a_node11"><a xlink:href="src/routes/game.jsx" xlink:title="game.jsx">
<path fill="#ffff77" stroke="black" d="M289,-131C289,-131 247,-131 247,-131 244,-131 241,-128 241,-125 241,-125 241,-119 241,-119 241,-116 244,-113 247,-113 247,-113 289,-113 289,-113 292,-113 295,-116 295,-119 295,-119 295,-125 295,-125 295,-128 292,-131 289,-131"/>
<text text-anchor="start" x="249.5" y="-119.8" font-family="Helvetica,sans-Serif" font-size="9.00">game.jsx</text>
</a>
</g>
</g>
<!-- src/routes/index.js&#45;&gt;src/routes/game.jsx -->
<g id="edge9" class="edge">
<title>src/routes/index.js&#45;&gt;src/routes/game.jsx</title>
<path fill="none" stroke="#000000" stroke-width="2" stroke-opacity="0.200000" d="M222.22,-101.49C227.46,-103.89 233.18,-106.51 238.72,-109.05"/>
<polygon fill="#000000" fill-opacity="0.200000" stroke="#000000" stroke-width="2" stroke-opacity="0.200000" points="237.55,-110.82 243.88,-111.41 239.3,-107 237.55,-110.82"/>
</g>
<!-- src/routes/setup.jsx -->
<g id="node12" class="node">
<title>src/routes/setup.jsx</title>
<g id="a_node12"><a xlink:href="src/routes/setup.jsx" xlink:title="setup.jsx">
<path fill="#ffff77" stroke="black" d="M289,-101C289,-101 247,-101 247,-101 244,-101 241,-98 241,-95 241,-95 241,-89 241,-89 241,-86 244,-83 247,-83 247,-83 289,-83 289,-83 292,-83 295,-86 295,-89 295,-89 295,-95 295,-95 295,-98 292,-101 289,-101"/>
<text text-anchor="start" x="249.5" y="-89.8" font-family="Helvetica,sans-Serif" font-size="9.00">setup.jsx</text>
</a>
</g>
</g>
<!-- src/routes/index.js&#45;&gt;src/routes/setup.jsx -->
<g id="edge10" class="edge">
<title>src/routes/index.js&#45;&gt;src/routes/setup.jsx</title>
<path fill="none" stroke="#000000" stroke-width="2" stroke-opacity="0.200000" d="M227.76,-92C229.1,-92 230.45,-92 231.8,-92"/>
<polygon fill="#000000" fill-opacity="0.200000" stroke="#000000" stroke-width="2" stroke-opacity="0.200000" points="231.7,-94.1 237.7,-92 231.7,-89.9 231.7,-94.1"/>
</g>
<!-- src/api.js -->
<g id="node4" class="node">
<title>src/api.js</title>
<g id="a_node4"><a xlink:href="src/api.js" xlink:title="api.js">
<path fill="#ffffcc" stroke="black" d="M454,-184C454,-184 412,-184 412,-184 409,-184 406,-181 406,-178 406,-178 406,-172 406,-172 406,-169 409,-166 412,-166 412,-166 454,-166 454,-166 457,-166 460,-169 460,-172 460,-172 460,-178 460,-178 460,-181 457,-184 454,-184"/>
<text text-anchor="start" x="422" y="-172.8" font-family="Helvetica,sans-Serif" font-size="9.00">api.js</text>
</a>
</g>
</g>
<!-- src/components/form/index.js -->
<g id="node5" class="node">
<title>src/components/form/index.js</title>
<g id="a_node5"><a xlink:href="src/components/form/index.js" xlink:title="index.js">
<path fill="#ffffcc" stroke="black" d="M377,-80C377,-80 335,-80 335,-80 332,-80 329,-77 329,-74 329,-74 329,-68 329,-68 329,-65 332,-62 335,-62 335,-62 377,-62 377,-62 380,-62 383,-65 383,-68 383,-68 383,-74 383,-74 383,-77 380,-80 377,-80"/>
<text text-anchor="start" x="340" y="-68.8" font-family="Helvetica,sans-Serif" font-size="9.00">index.js</text>
</a>
</g>
</g>
<!-- src/components/form/input.jsx -->
<g id="node6" class="node">
<title>src/components/form/input.jsx</title>
<g id="a_node6"><a xlink:href="src/components/form/input.jsx" xlink:title="input.jsx">
<path fill="#ffff77" stroke="black" d="M454,-50C454,-50 412,-50 412,-50 409,-50 406,-47 406,-44 406,-44 406,-38 406,-38 406,-35 409,-32 412,-32 412,-32 454,-32 454,-32 457,-32 460,-35 460,-38 460,-38 460,-44 460,-44 460,-47 457,-50 454,-50"/>
<text text-anchor="start" x="416" y="-38.8" font-family="Helvetica,sans-Serif" font-size="9.00">input.jsx</text>
</a>
</g>
</g>
<!-- src/components/form/index.js&#45;&gt;src/components/form/input.jsx -->
<g id="edge3" class="edge">
<title>src/components/form/index.js&#45;&gt;src/components/form/input.jsx</title>
<path fill="none" stroke="#000000" stroke-width="2" stroke-opacity="0.200000" d="M380.73,-61.51C386.95,-59.02 393.75,-56.3 400.31,-53.68"/>
<polygon fill="#000000" fill-opacity="0.200000" stroke="#000000" stroke-width="2" stroke-opacity="0.200000" points="400.82,-55.73 405.61,-51.55 399.26,-51.83 400.82,-55.73"/>
</g>
<!-- src/components/form/range.jsx -->
<g id="node7" class="node">
<title>src/components/form/range.jsx</title>
<g id="a_node7"><a xlink:href="src/components/form/range.jsx" xlink:title="range.jsx">
<path fill="#ffff77" stroke="black" d="M454,-80C454,-80 412,-80 412,-80 409,-80 406,-77 406,-74 406,-74 406,-68 406,-68 406,-65 409,-62 412,-62 412,-62 454,-62 454,-62 457,-62 460,-65 460,-68 460,-68 460,-74 460,-74 460,-77 457,-80 454,-80"/>
<text text-anchor="start" x="414" y="-68.8" font-family="Helvetica,sans-Serif" font-size="9.00">range.jsx</text>
</a>
</g>
</g>
<!-- src/components/form/index.js&#45;&gt;src/components/form/range.jsx -->
<g id="edge4" class="edge">
<title>src/components/form/index.js&#45;&gt;src/components/form/range.jsx</title>
<path fill="none" stroke="#000000" stroke-width="2" stroke-opacity="0.200000" d="M383.23,-71C387.66,-71 392.32,-71 396.93,-71"/>
<polygon fill="#000000" fill-opacity="0.200000" stroke="#000000" stroke-width="2" stroke-opacity="0.200000" points="396.63,-73.1 402.63,-71 396.63,-68.9 396.63,-73.1"/>
</g>
<!-- src/components/game&#45;over.jsx -->
<g id="node8" class="node">
<title>src/components/game&#45;over.jsx</title>
<g id="a_node8"><a xlink:href="src/components/game-over.jsx" xlink:title="game&#45;over.jsx">
<path fill="#ffff77" stroke="black" d="M387,-132C387,-132 325,-132 325,-132 322,-132 319,-129 319,-126 319,-126 319,-120 319,-120 319,-117 322,-114 325,-114 325,-114 387,-114 387,-114 390,-114 393,-117 393,-120 393,-120 393,-126 393,-126 393,-129 390,-132 387,-132"/>
<text text-anchor="start" x="327" y="-120.8" font-family="Helvetica,sans-Serif" font-size="9.00">game&#45;over.jsx</text>
</a>
</g>
</g>
<!-- src/components/game&#45;over.jsx&#45;&gt;src/api.js -->
<g id="edge5" class="edge">
<title>src/components/game&#45;over.jsx&#45;&gt;src/api.js</title>
<path fill="none" stroke="#000000" stroke-width="2" stroke-opacity="0.200000" d="M370.41,-132.3C381.75,-140.16 398.19,-151.56 411.23,-160.6"/>
<polygon fill="#000000" fill-opacity="0.200000" stroke="#000000" stroke-width="2" stroke-opacity="0.200000" points="409.84,-162.19 415.97,-163.88 412.23,-158.74 409.84,-162.19"/>
</g>
<!-- src/index.css -->
<g id="node9" class="node">
<title>src/index.css</title>
<g id="a_node9"><a xlink:href="src/index.css" xlink:title="index.css">
<path fill="#ffffcc" stroke="black" d="M151.5,-70C151.5,-70 108.5,-70 108.5,-70 105.5,-70 102.5,-67 102.5,-64 102.5,-64 102.5,-58 102.5,-58 102.5,-55 105.5,-52 108.5,-52 108.5,-52 151.5,-52 151.5,-52 154.5,-52 157.5,-55 157.5,-58 157.5,-58 157.5,-64 157.5,-64 157.5,-67 154.5,-70 151.5,-70"/>
<text text-anchor="start" x="110.5" y="-58.8" font-family="Helvetica,sans-Serif" font-size="9.00">index.css</text>
</a>
</g>
</g>
<!-- src/main.jsx -->
<g id="node10" class="node">
<title>src/main.jsx</title>
<g id="a_node10"><a xlink:href="src/main.jsx" xlink:title="main.jsx">
<path fill="#ffff77" stroke="black" d="M76,-70C76,-70 34,-70 34,-70 31,-70 28,-67 28,-64 28,-64 28,-58 28,-58 28,-55 31,-52 34,-52 34,-52 76,-52 76,-52 79,-52 82,-55 82,-58 82,-58 82,-64 82,-64 82,-67 79,-70 76,-70"/>
<text text-anchor="start" x="38" y="-58.8" font-family="Helvetica,sans-Serif" font-size="9.00">main.jsx</text>
</a>
</g>
</g>
<!-- src/main.jsx&#45;&gt;src/App.jsx -->
<g id="edge6" class="edge">
<title>src/main.jsx&#45;&gt;src/App.jsx</title>
<path fill="none" stroke="#000000" stroke-width="2" stroke-opacity="0.200000" d="M82.27,-70.38C86.22,-71.88 90.23,-73.45 94,-75 96.32,-75.95 98.71,-76.97 101.1,-78.02"/>
<polygon fill="#000000" fill-opacity="0.200000" stroke="#000000" stroke-width="2" stroke-opacity="0.200000" points="100.03,-79.84 106.36,-80.37 101.74,-76 100.03,-79.84"/>
</g>
<!-- src/main.jsx&#45;&gt;src/index.css -->
<g id="edge7" class="edge">
<title>src/main.jsx&#45;&gt;src/index.css</title>
<path fill="none" stroke="#000000" stroke-width="2" stroke-opacity="0.200000" d="M82.35,-61C86.03,-61 89.85,-61 93.66,-61"/>
<polygon fill="#000000" fill-opacity="0.200000" stroke="#000000" stroke-width="2" stroke-opacity="0.200000" points="93.41,-63.1 99.41,-61 93.41,-58.9 93.41,-63.1"/>
</g>
<!-- src/routes/game.jsx&#45;&gt;src/components/game&#45;over.jsx -->
<g id="edge8" class="edge">
<title>src/routes/game.jsx&#45;&gt;src/components/game&#45;over.jsx</title>
<path fill="none" stroke="#000000" stroke-width="2" stroke-opacity="0.200000" d="M295.27,-122.31C299.9,-122.36 304.84,-122.42 309.82,-122.47"/>
<polygon fill="#000000" fill-opacity="0.200000" stroke="#000000" stroke-width="2" stroke-opacity="0.200000" points="309.71,-124.57 315.73,-122.54 309.76,-120.37 309.71,-124.57"/>
</g>
<!-- src/routes/setup.jsx&#45;&gt;src/components/form/index.js -->
<g id="edge11" class="edge">
<title>src/routes/setup.jsx&#45;&gt;src/components/form/index.js</title>
<path fill="none" stroke="#000000" stroke-width="2" stroke-opacity="0.200000" d="M295.27,-85.59C303.03,-83.69 311.66,-81.58 319.88,-79.57"/>
<polygon fill="#000000" fill-opacity="0.200000" stroke="#000000" stroke-width="2" stroke-opacity="0.200000" points="320.32,-81.63 325.65,-78.17 319.33,-77.55 320.32,-81.63"/>
</g>
<!-- src/setupTests.js -->
<g id="node13" class="node">
<title>src/setupTests.js</title>
<g id="a_node13"><a xlink:href="src/setupTests.js" xlink:title="setupTests.js">
<path fill="#ccffcc" stroke="black" d="M83.5,-38C83.5,-38 26.5,-38 26.5,-38 23.5,-38 20.5,-35 20.5,-32 20.5,-32 20.5,-26 20.5,-26 20.5,-23 23.5,-20 26.5,-20 26.5,-20 83.5,-20 83.5,-20 86.5,-20 89.5,-23 89.5,-26 89.5,-26 89.5,-32 89.5,-32 89.5,-35 86.5,-38 83.5,-38"/>
<text text-anchor="start" x="28.5" y="-26.8" font-family="Helvetica,sans-Serif" font-size="9.00">setupTests.js</text>
</a>
</g>
</g>
<!-- src/tests/app.test.jsx -->
<g id="node14" class="node">
<title>src/tests/app.test.jsx</title>
<g id="a_node14"><a xlink:href="src/tests/app.test.jsx" xlink:title="app.test.jsx">
<path fill="#ffff77" stroke="black" d="M80,-104C80,-104 30,-104 30,-104 27,-104 24,-101 24,-98 24,-98 24,-92 24,-92 24,-89 27,-86 30,-86 30,-86 80,-86 80,-86 83,-86 86,-89 86,-92 86,-92 86,-98 86,-98 86,-101 83,-104 80,-104"/>
<text text-anchor="start" x="32" y="-92.8" font-family="Helvetica,sans-Serif" font-size="9.00">app.test.jsx</text>
</a>
</g>
</g>
<!-- src/tests/app.test.jsx&#45;&gt;src/App.jsx -->
<g id="edge12" class="edge">
<title>src/tests/app.test.jsx&#45;&gt;src/App.jsx</title>
<path fill="none" stroke="#000000" stroke-width="2" stroke-opacity="0.200000" d="M86.11,-93.35C88.69,-93.21 91.31,-93.07 93.92,-92.92"/>
<polygon fill="#000000" fill-opacity="0.200000" stroke="#000000" stroke-width="2" stroke-opacity="0.200000" points="93.79,-95.03 99.66,-92.61 93.56,-90.84 93.79,-95.03"/>
</g>
</g>
</svg>
